<?xml version="1.0" encoding="UTF-8" standalone="no"?>
<!DOCTYPE svg PUBLIC "-//W3C//DTD SVG 1.1//EN" "http://www.w3.org/Graphics/SVG/1.1/DTD/svg11.dtd">
<svg width="100%" height="100%" viewBox="0 0 43 43" version="1.1" xmlns="http://www.w3.org/2000/svg" xmlns:xlink="http://www.w3.org/1999/xlink" xml:space="preserve" xmlns:serif="http://www.serif.com/" style="fill-rule:evenodd;clip-rule:evenodd;stroke-linejoin:round;stroke-miterlimit:1.41421;">
    <g id="Group-8-Copy">
        <path id="Fill-6" d="M32.667,8.168C31.274,8.175 30.153,9.291 30.141,10.681C30.128,12.069 31.285,13.232 32.685,13.241C34.078,13.25 35.216,12.1 35.214,10.684C35.211,9.253 34.106,8.161 32.667,8.168M21.441,28.953C25.288,28.957 28.459,25.79 28.462,21.94C28.465,18.093 25.295,14.918 21.45,14.919C17.596,14.921 14.433,18.081 14.429,21.931C14.425,25.778 17.592,28.949 21.441,28.953M32.26,21.947C32.26,27.948 27.446,32.752 21.435,32.751C15.398,32.751 10.628,27.93 10.631,21.833C10.634,15.889 15.497,11.118 21.549,11.122C27.46,11.125 32.26,15.976 32.26,21.947M38.78,21.599C38.752,21.598 38.723,21.597 38.695,21.597C38.695,19.935 38.729,18.273 38.685,16.613C38.643,15.016 38.582,13.415 38.421,11.827C38.059,8.265 35.939,5.811 32.434,5.144C30.592,4.794 28.678,4.74 26.793,4.706C23.225,4.641 19.655,4.649 16.087,4.703C14.308,4.73 12.512,4.797 10.758,5.07C7.713,5.545 5.632,7.288 4.79,10.308C4.52,11.276 4.362,12.302 4.338,13.306C4.247,17.118 4.191,20.933 4.204,24.746C4.213,27.173 4.268,29.608 4.479,32.024C4.796,35.645 7,38.114 10.566,38.762C12.398,39.095 14.296,39.136 16.167,39.168C19.689,39.227 23.213,39.211 26.735,39.173C28.347,39.156 29.963,39.066 31.567,38.907C33.067,38.758 34.472,38.269 35.679,37.31C37.636,35.756 38.392,33.613 38.507,31.235C38.663,28.026 38.695,24.811 38.78,21.599M21.482,0.831C24.311,0.881 27.14,0.909 29.968,0.988C32.424,1.057 34.804,1.494 36.937,2.796C39.734,4.503 41.445,7.02 41.997,10.217C42.328,12.13 42.441,14.097 42.471,16.042C42.535,20.224 42.51,24.409 42.464,28.592C42.44,30.788 42.367,32.992 41.639,35.104C40.226,39.199 37.354,41.686 33.14,42.487C31.236,42.849 29.262,42.932 27.317,42.962C23.149,43.025 18.98,43 14.812,42.955C12.616,42.932 10.412,42.859 8.299,42.137C4.199,40.735 1.71,37.861 0.897,33.652C0.53,31.75 0.45,29.774 0.42,27.829C0.356,23.647 0.381,19.462 0.427,15.279C0.451,13.083 0.524,10.879 1.253,8.767C2.665,4.673 5.538,2.186 9.751,1.385C11.655,1.023 13.629,0.983 15.575,0.907C17.541,0.83 19.512,0.89 21.481,0.89C21.481,0.87 21.481,0.85 21.482,0.831" style="fill:rgb(57,34,131);"/>
    </g>
</svg>
