<?xml version="1.0" standalone="no"?>
<!DOCTYPE svg PUBLIC "-//W3C//DTD SVG 20010904//EN"
 "http://www.w3.org/TR/2001/REC-SVG-20010904/DTD/svg10.dtd">
<svg version="1.0" xmlns="http://www.w3.org/2000/svg"
 width="260.000000pt" height="260.000000pt" viewBox="0 0 260.000000 260.000000"
 preserveAspectRatio="xMidYMid meet">
<metadata>
Created by potrace 1.11, written by Peter Selinger 2001-2013
</metadata>
<g transform="translate(0.000000,260.000000) scale(0.100000,-0.100000)"
fill="#000000" stroke="none">
<path d="M1173 2343 c-7 -18 -13 -37 -13 -43 0 -5 -4 -10 -8 -10 -5 0 -9 -6
-9 -12 -1 -18 -46 -122 -56 -129 -5 -3 -8 -9 -7 -13 3 -14 -33 -95 -40 -91 -5
3 -7 -3 -5 -12 1 -10 -5 -31 -13 -48 -9 -16 -17 -35 -18 -41 -1 -6 -16 -42
-33 -81 -17 -39 -31 -76 -31 -82 0 -6 -5 -11 -11 -11 -5 0 -7 5 -3 12 4 7 3 8
-5 4 -8 -5 -9 -12 -3 -19 7 -8 2 -29 -14 -62 -13 -27 -23 -53 -24 -57 0 -4
-11 -31 -24 -60 -13 -29 -35 -80 -47 -113 -13 -33 -27 -61 -31 -63 -5 -2 -8
-10 -8 -18 0 -15 12 -16 163 -14 60 1 94 -3 105 -12 11 -9 13 -9 9 -1 -4 7 -3
20 2 30 5 10 12 26 15 36 4 11 11 15 17 11 8 -4 9 -3 5 5 -11 18 2 63 16 55 7
-4 8 -3 4 4 -4 6 2 34 14 62 11 27 30 74 41 103 12 28 27 55 35 60 7 4 11 14
7 22 -3 9 -1 21 5 28 6 6 10 15 9 19 -1 4 6 16 15 28 10 11 14 20 9 20 -5 0
-2 18 7 40 9 22 21 40 25 40 5 0 5 -6 1 -12 -5 -10 -3 -10 7 0 11 11 11 14 1
21 -11 7 -11 11 1 22 7 8 12 21 9 29 -2 9 2 7 12 -5 8 -11 15 -24 16 -30 0 -5
-4 -4 -9 4 -5 8 -11 9 -15 3 -3 -6 2 -13 12 -16 17 -6 53 -84 44 -95 -2 -2 1
-7 8 -11 6 -4 12 -17 13 -28 1 -12 4 -22 7 -22 3 0 11 -15 18 -32 8 -18 18
-42 23 -53 6 -12 11 -27 13 -35 2 -8 11 -32 20 -53 9 -21 14 -43 10 -49 -4 -6
-3 -8 3 -5 8 5 42 -61 48 -93 1 -3 9 -22 18 -44 9 -21 17 -41 17 -45 0 -3 52
-5 116 -3 84 2 120 -1 132 -10 10 -8 13 -9 9 -1 -4 6 -1 13 7 15 12 2 9 17
-15 72 -23 54 -27 72 -17 83 9 11 8 13 -2 11 -17 -4 -51 60 -46 85 2 9 1 15
-3 12 -10 -6 -33 44 -26 56 4 5 2 9 -2 9 -13 0 -45 81 -39 97 3 8 2 11 -4 8
-11 -7 -33 32 -25 45 3 6 1 10 -6 10 -6 0 -9 8 -6 20 3 11 2 18 -3 15 -4 -2
-14 12 -23 33 -9 20 -34 81 -57 134 -23 53 -38 102 -34 109 4 7 3 9 -3 6 -6
-4 -27 34 -48 88 -21 52 -43 95 -49 95 -6 1 -58 2 -115 3 l-104 2 -14 -32z"/>
<path d="M1030 2119 c0 -5 5 -7 10 -4 6 3 10 8 10 11 0 2 -4 4 -10 4 -5 0 -10
-5 -10 -11z"/>
<path d="M1575 2051 c-3 -5 -2 -12 3 -15 5 -3 9 1 9 9 0 17 -3 19 -12 6z"/>
<path d="M1665 1960 c-3 -6 1 -7 9 -4 18 7 21 14 7 14 -6 0 -13 -4 -16 -10z"/>
<path d="M1311 1913 c7 -12 15 -20 18 -17 3 2 -3 12 -13 22 -17 16 -18 16 -5
-5z"/>
<path d="M1295 1885 c0 -13 3 -21 8 -18 4 2 7 10 7 18 0 8 -3 16 -7 18 -5 3
-8 -5 -8 -18z"/>
<path d="M1316 1853 c-6 -14 -5 -15 5 -6 7 7 10 15 7 18 -3 3 -9 -2 -12 -12z"/>
<path d="M1234 1809 c-3 -6 -2 -15 3 -20 5 -5 9 -1 9 11 0 23 -2 24 -12 9z"/>
<path d="M1695 1789 c-4 -6 -5 -12 -2 -15 2 -3 7 2 10 11 7 17 1 20 -8 4z"/>
<path d="M1279 1773 c-13 -17 -13 -17 6 -3 11 8 22 16 24 17 2 2 0 3 -6 3 -6
0 -17 -8 -24 -17z"/>
<path d="M1480 1480 c-9 -6 -10 -10 -3 -10 6 0 15 5 18 10 8 12 4 12 -15 0z"/>
<path d="M1294 1223 c5 -10 -7 -13 -53 -13 -59 0 -60 0 -71 -34 -20 -61 -47
-110 -52 -95 -3 8 -5 1 -5 -16 0 -16 -9 -48 -19 -70 -17 -38 -20 -46 -23 -62
-1 -5 -6 -1 -12 7 -8 12 -9 11 -4 -6 6 -25 -3 -56 -15 -49 -5 3 -12 0 -16 -6
-4 -8 -3 -9 4 -5 13 8 15 -4 6 -28 -3 -9 -9 -14 -13 -12 -3 2 -7 -6 -7 -17 -1
-12 -14 -49 -30 -82 -15 -33 -28 -62 -29 -65 -2 -7 -21 -53 -47 -117 -12 -29
-26 -49 -31 -46 -6 3 -7 1 -4 -5 9 -13 -33 -123 -43 -117 -5 3 -6 -4 -3 -14 3
-12 -3 -26 -15 -36 -12 -11 -18 -25 -14 -38 3 -13 1 -18 -5 -14 -7 5 -9 0 -6
-13 3 -11 0 -20 -6 -20 -6 0 -11 -7 -11 -15 0 -15 14 -17 198 -17 65 0 92 12
92 43 0 9 7 24 15 32 8 8 11 17 8 21 -3 3 -1 11 4 18 6 7 16 30 23 51 6 20 15
35 20 32 5 -3 12 0 16 6 4 8 3 9 -4 5 -18 -11 -15 0 20 85 17 43 35 76 40 73
4 -3 5 2 2 10 -3 8 0 25 7 38 7 13 14 30 15 38 2 8 11 20 20 27 10 7 13 13 6
13 -8 0 -8 8 -1 30 6 17 15 30 21 30 5 0 6 5 3 10 -3 6 -1 10 5 10 6 0 8 5 5
10 -3 6 -2 10 4 10 6 0 8 8 4 18 -5 14 -3 13 10 -3 8 -11 13 -23 11 -27 -3 -5
-1 -8 4 -8 9 0 26 -55 23 -72 0 -5 4 -8 10 -8 5 0 7 -4 4 -10 -3 -5 -1 -10 4
-10 6 0 11 -6 11 -14 0 -8 15 -50 33 -93 19 -43 33 -86 31 -96 -1 -9 2 -15 7
-11 8 4 13 -20 7 -29 -2 -2 5 -12 15 -22 10 -9 16 -24 13 -32 -3 -8 -2 -12 3
-9 4 3 14 -14 21 -37 8 -23 17 -47 22 -53 4 -6 9 -23 10 -37 1 -14 5 -24 9
-21 4 2 9 -1 11 -8 3 -8 43 -11 137 -11 73 1 135 3 137 6 3 2 -6 29 -20 58
-45 99 -67 162 -62 176 4 9 1 11 -6 7 -8 -5 -9 -2 -5 10 4 9 3 15 -2 12 -10
-7 -24 22 -16 34 3 4 -2 11 -11 14 -9 3 -14 13 -11 20 3 8 1 16 -4 18 -6 2
-11 10 -12 18 -2 8 -7 22 -12 30 -5 8 -10 17 -11 20 -1 3 -7 21 -15 40 -7 19
-12 38 -11 43 1 4 -2 7 -6 7 -9 0 -48 100 -44 113 1 4 -3 7 -9 7 -6 0 -9 6 -7
12 3 7 -1 19 -9 26 -7 8 -11 18 -8 23 4 5 1 9 -4 9 -6 0 -11 7 -11 15 0 8 -4
24 -10 35 -5 11 -14 29 -20 40 -5 11 -10 26 -10 34 0 8 -5 16 -10 18 -6 2 -12
13 -13 26 0 12 -4 22 -7 22 -3 0 -14 23 -24 50 -19 52 -22 54 -84 50 -18 -1
-40 4 -49 12 -12 9 -15 9 -9 1z"/>
<path d="M1475 1200 c-3 -5 -1 -10 4 -10 6 0 11 5 11 10 0 6 -2 10 -4 10 -3 0
-8 -4 -11 -10z"/>
<path d="M1050 1096 c0 -2 8 -10 18 -17 15 -13 16 -12 3 4 -13 16 -21 21 -21
13z"/>
<path d="M1530 1006 c0 -2 7 -7 16 -10 8 -3 12 -2 9 4 -6 10 -25 14 -25 6z"/>
<path d="M1620 840 c-9 -6 -10 -10 -3 -10 6 0 15 5 18 10 8 12 4 12 -15 0z"/>
<path d="M1290 781 c0 -5 7 -12 16 -15 14 -5 15 -4 4 9 -14 17 -20 19 -20 6z"/>
<path d="M1610 780 c0 -5 5 -10 11 -10 5 0 7 5 4 10 -3 6 -8 10 -11 10 -2 0
-4 -4 -4 -10z"/>
<path d="M1266 744 c-6 -15 -4 -15 11 -3 10 7 20 15 22 16 2 2 -3 3 -11 3 -9
0 -19 -7 -22 -16z"/>
<path d="M1315 733 c1 -10 -1 -23 -6 -28 -5 -7 -1 -11 11 -11 13 0 16 5 11 16
-5 8 -6 21 -4 28 3 6 0 12 -5 12 -6 0 -9 -8 -7 -17z"/>
<path d="M1655 709 c-4 -6 -5 -12 -2 -15 2 -3 7 2 10 11 7 17 1 20 -8 4z"/>
<path d="M1236 607 c3 -10 9 -15 12 -12 3 3 0 11 -7 18 -10 9 -11 8 -5 -6z"/>
<path d="M1195 540 c3 -5 8 -10 11 -10 2 0 4 5 4 10 0 6 -5 10 -11 10 -5 0 -7
-4 -4 -10z"/>
<path d="M1390 539 c0 -5 5 -7 10 -4 6 3 10 8 10 11 0 2 -4 4 -10 4 -5 0 -10
-5 -10 -11z"/>
<path d="M1425 400 c-3 -6 1 -7 9 -4 18 7 21 14 7 14 -6 0 -13 -4 -16 -10z"/>
<path d="M1135 389 c-4 -6 -5 -12 -2 -15 2 -3 7 2 10 11 7 17 1 20 -8 4z"/>
</g>
</svg>
